<?xml version="1.0" encoding="utf-8"?>
<!-- Generator: Adobe Illustrator 16.0.0, SVG Export Plug-In . SVG Version: 6.00 Build 0)  -->
<!DOCTYPE svg PUBLIC "-//W3C//DTD SVG 1.1//EN" "http://www.w3.org/Graphics/SVG/1.1/DTD/svg11.dtd">
<svg version="1.1" id="Layer_1" xmlns="http://www.w3.org/2000/svg" xmlns:xlink="http://www.w3.org/1999/xlink" x="0px" y="0px"
	 width="289px" height="46px" viewBox="0 0 289 46" enable-background="new 0 0 289 46" xml:space="preserve">
<g>
	<defs>
		<rect id="SVGID_1_" x="-67" y="-185.027" width="420.772" height="418.027"/>
	</defs>
	<clipPath id="SVGID_2_">
		<use xlink:href="#SVGID_1_"  overflow="visible"/>
	</clipPath>
	<path clip-path="url(#SVGID_2_)" d="M219.825,7.546c-0.105,0.343-0.104,0.529-0.194,0.606c-3.086,2.628-2.427,5.675-1.223,8.958
		c1.353,3.691,2.41,7.49,3.797,11.881c0.72-1.891,1.229-3.21,1.727-4.533c1.317-3.503,2.546-7.043,3.985-10.495
		c0.608-1.457,0.532-2.455-0.676-3.501c-0.893-0.774-1.595-1.768-2.624-2.939h10.763c-0.519,0.556-0.822,1.027-1.25,1.315
		c-2.967,2.005-4.37,4.984-5.572,8.231c-2.745,7.417-5.709,14.752-8.539,22.137c-0.447,1.166-0.939,1.817-2.384,1.799
		c-1.484-0.018-1.503-1.019-1.776-1.895c-2.188-6.993-4.352-13.994-6.669-21.472c-0.476,1.113-0.786,1.797-1.062,2.494
		c-2.542,6.438-5.097,12.869-7.597,19.323c-0.401,1.035-0.84,1.546-2.086,1.548c-1.267,0.001-1.706-0.545-2.086-1.583
		c-2.4-6.566-4.848-13.114-7.275-19.67c-1.586-4.287-2.617-8.864-6.34-12.22h17.346c-0.804,1.118-1.609,2.121-2.271,3.211
		c-0.371,0.612-0.866,1.484-0.689,2.043c1.752,5.506,3.632,10.971,5.633,16.912c1.994-5.1,3.971-9.688,5.507-14.42
		c0.355-1.096-0.585-2.798-1.298-4.005c-0.766-1.296-1.965-2.337-3.182-3.726H219.825z"/>
	<path clip-path="url(#SVGID_2_)" d="M123.302,21.799c0-1.737,0.157-3.44-0.032-5.103c-0.411-3.639-2.857-5.907-6.843-5.846
		c-2.625,0.04-5.243,0.842-7.851,1.366c-0.651,0.131-1.252,0.507-1.876,0.769c-0.109-0.147-0.216-0.294-0.324-0.441
		c0.671-0.613,1.287-1.303,2.022-1.827c5.359-3.825,11.313-5.015,17.727-3.712c4.099,0.833,6.715,3.507,7.005,7.728
		c0.383,5.57,0.457,11.173,0.353,16.756c-0.047,2.533,0.435,4.545,2.453,6.116c0.379,0.295,0.644,0.735,1.215,1.406
		c-4.227,0.928-8.219,1.805-12.307,2.703c-0.423-1.649-0.804-3.135-1.066-4.155c-2.886,1.31-5.698,2.903-8.714,3.832
		c-1.703,0.525-3.827,0.285-5.615-0.176c-5.178-1.334-7.054-6.997-3.942-11.552c2.602-3.811,6.612-5.412,10.838-6.524
		C118.585,22.55,120.901,22.25,123.302,21.799 M123.359,23.348c-0.733,0.081-1.297,0.085-1.833,0.211
		c-5.525,1.306-8.583,5.394-7.495,10.022c0.405,1.726,1.375,2.922,3.242,3.192c2.106,0.304,4.102,0.096,5.796-1.325
		c0.215-0.181,0.277-0.637,0.278-0.965C123.366,30.808,123.359,27.132,123.359,23.348"/>
	<path clip-path="url(#SVGID_2_)" d="M271.475,38.495c-4.277,0.929-8.206,1.782-12.284,2.668c-0.398-1.563-0.778-3.053-1.218-4.771
		c-0.935,0.723-1.768,1.418-2.652,2.04c-3.264,2.298-6.803,3.347-10.812,2.44c-5.64-1.273-7.941-6.849-4.713-11.668
		c2.615-3.903,6.697-5.518,11.001-6.634c2.176-0.564,4.422-0.859,6.745-1.296c0-1.895,0.232-3.809-0.05-5.643
		c-0.52-3.349-2.872-5.386-6.612-5.321c-2.693,0.047-5.376,0.872-8.052,1.404c-0.641,0.127-1.237,0.471-1.961,0.499
		c2.168-2.796,5.147-4.33,8.384-5.298c3.56-1.065,7.222-1.294,10.913-0.537c4.184,0.857,7.007,3.471,7.302,7.702
		c0.392,5.639,0.427,11.313,0.379,16.969c-0.021,2.414,0.335,4.43,2.362,5.936C270.633,37.304,270.914,37.815,271.475,38.495
		 M257.701,22.485c-1.808,0.633-3.384,1.023-4.812,1.717c-3.555,1.728-5.136,4.706-4.613,8.244c0.259,1.742,0.976,3.181,2.763,3.65
		c2.207,0.579,4.364,0.331,6.261-1.07c0.232-0.172,0.382-0.604,0.384-0.918C257.71,30.366,257.701,26.624,257.701,22.485"/>
	<path clip-path="url(#SVGID_2_)" d="M67.066,39.589c0.799-3.321,1.498-6.226,2.196-9.129l0.509-0.065
		c0.597,1.074,1.161,2.169,1.799,3.218c0.882,1.45,1.802,2.877,2.735,4.294c2.342,3.562,5.691,3.454,9.028,2.204
		c3.141-1.177,3.983-5.337,1.566-7.74c-1.273-1.266-2.946-2.169-4.53-3.076c-2.698-1.544-5.563-2.809-8.185-4.469
		c-3.519-2.225-5.314-5.511-4.601-9.75c0.722-4.291,3.69-6.473,7.682-7.549c5.74-1.544,11.305-0.747,16.981,1.089
		c-0.519,2.827-1.012,5.505-1.572,8.552c-0.551-0.632-0.922-0.994-1.221-1.408c-1.366-1.895-2.764-3.769-4.049-5.717
		c-1.396-2.116-3.38-2.407-5.577-1.893c-1.979,0.46-3.445,1.582-3.887,3.731c-0.498,2.417,0.54,4.212,2.451,5.436
		c2.018,1.291,4.229,2.274,6.309,3.474c2.139,1.232,4.396,2.347,6.298,3.889c5.212,4.228,4.552,11.621-1.288,14.95
		c-4.937,2.815-10.301,2.785-15.691,1.806C71.749,41.023,69.543,40.258,67.066,39.589"/>
	<path clip-path="url(#SVGID_2_)" d="M175.491,6.752c-0.623,3.753-1.193,7.187-1.826,10.996c-1.214-1.338-1.945-2.6-3.041-3.243
		c-1.575-0.925-3.38-1.816-5.154-1.969c-2.596-0.223-3.952,1.441-3.954,4.03c-0.004,5.531,0.115,11.066-0.056,16.591
		c-0.073,2.337,0.505,4.121,2.384,5.478c0.689,0.497,1.376,0.995,2.066,1.493c-0.131,0.203-0.263,0.405-0.394,0.608h-18.468
		c1.075-1.144,2.171-2.082,2.968-3.228c0.633-0.91,1.255-2.065,1.276-3.124c0.12-6.024-0.031-12.056,0.104-18.08
		c0.051-2.233-0.318-4.006-2.371-5.184c-0.527-0.302-0.932-0.822-1.774-1.595c4.862-1.076,9.337-2.066,14.142-3.13v6.013
		C165.426,8.113,169.577,5.545,175.491,6.752"/>
	<path clip-path="url(#SVGID_2_)" fill="#52B38F" d="M26.32,5.309C16.017,8.307,10.078,19.121,13.075,29.425
		c2.996,10.295,13.811,16.233,24.113,13.236c10.295-2.995,16.235-13.812,13.239-24.104C47.429,8.253,36.615,2.313,26.32,5.309
		 M20.991,37.119c2.372,0.623,5.696-1.223,6.615-3.896c0.539-1.544,0.582-3.126,0.68-4.662c0.059-1.057,0.097-2.159,0.127-3.285
		c0.006-0.012,0.004-0.018,0.001-0.025c0.06-1.023,0.078-2.076,0.145-3.136c0.005-0.129,0.015-0.268,0.028-0.4
		c0.014-0.218,0.033-0.445,0.054-0.664c-0.003-0.041,0.001-0.085,0.013-0.132c0.017-0.175,0.035-0.351,0.06-0.529
		c0.034-0.292,0.084-0.586,0.143-0.885l0.005-0.011c0.031-0.187,0.069-0.376,0.115-0.569c1.345-5.78,7.977-9.763,13.38-8.096
		c0,0,0.314,0.088,0.453,0.269c-2.382-0.568-5.638,1.273-6.548,3.917c-0.521,1.523-0.57,3.082-0.662,4.583
		c-0.031,1.15-0.019,2.307-0.09,3.469c-0.129,2.073-0.106,4.148-0.607,6.263c-1.363,5.774-8.002,9.761-13.392,8.081
		C21.193,37.314,20.991,37.119,20.991,37.119"/>
</g>
</svg>
